PathFileType	4	(X/Y/Z)	E:\Marcel_BSc\Ayumi_22_01_2025\22-01-2025\sumo_dl_1.trc
DataRate	CameraRate	NumFrames	NumMarkers	Units	OrigDataRate	OrigDataStartFrame	OrigNumFrames
200.0	200.0	7	47	mm	200.0	1096	2190	
Frame#	Time	FHD			LBHD			RBHD			RBAR			LBAR			RSACR			LSACR			USACR			C7			CLAV			T10			RSHO			LSHO			LTHI1			LTHI3			LTHI2			LTIB1			LTIB2			LTIB3			LMMAL			LLMAL			LHEE			LMT1			LMT5			LMT3			RTHI1			RTHI2			RTHI3			RTIB1			RTIB3			RTIB2			RLMAL			RMMAL			RHEE			RMT5			RMT1			RMT3			LDUPA			LMUPA			LUUPA			LRAD			RUL			RRAD			RUFIN			RMUPA			RDUPA			RUUPA			
		X1	Y1	Z1	X2	Y2	Z2	X3	Y3	Z3	X4	Y4	Z4	X5	Y5	Z5	X6	Y6	Z6	X7	Y7	Z7	X8	Y8	Z8	X9	Y9	Z9	X10	Y10	Z10	X11	Y11	Z11	X12	Y12	Z12	X13	Y13	Z13	X14	Y14	Z14	X15	Y15	Z15	X16	Y16	Z16	X17	Y17	Z17	X18	Y18	Z18	X19	Y19	Z19	X20	Y20	Z20	X21	Y21	Z21	X22	Y22	Z22	X23	Y23	Z23	X24	Y24	Z24	X25	Y25	Z25	X26	Y26	Z26	X27	Y27	Z27	X28	Y28	Z28	X29	Y29	Z29	X30	Y30	Z30	X31	Y31	Z31	X32	Y32	Z32	X33	Y33	Z33	X34	Y34	Z34	X35	Y35	Z35	X36	Y36	Z36	X37	Y37	Z37	X38	Y38	Z38	X39	Y39	Z39	X40	Y40	Z40	X41	Y41	Z41	X42	Y42	Z42	X43	Y43	Z43	X44	Y44	Z44	X45	Y45	Z45	X46	Y46	Z46	X47	Y47	Z47	
1096	5.47	55.747807	1413.3912	-991.73669	66.377357	1398.1676	-930.10114	86.074974	1368.6688	-1060.7416	255.26306	553.04193	-2103.179	263.40894	498.89169	117.21684	506.86121	878.30109	-1033.5298	507.39581	875.80365	-960.13403	499.99722	888.2536	-996.13593	199.22304	1218.2955	-973.71686	124.94563	1081.5819	-981.43921	396.96005	1045.3103	-992.99445	115.50595	1099.1533	-1133.4121	142.20523	1096.2845	-811.82092	432.42792	562.57697	-729.78687	421.68372	498.77325	-719.03851	386.43533	526.70398	-695.76306	346.20847	238.92288	-572.54291	382.6825	216.41382	-599.82098	348.55081	174.61905	-563.54938	276.20789	67.793327	-583.84375	332.53287	67.347534	-539.99445	336.10651	29.0058	-590.00262	186.96437	45.477818	-461.04431	253.52275	25.109264	-418.20422	208.17072	40.083035	-433.71899	424.50342	569.38702	-1269.9142	377.57446	533.83527	-1299.3926	416.95813	505.76169	-1281.3151	354.84003	273.77051	-1404.0659	360.07416	209.26797	-1411.6078	393.41983	254.8291	-1378.307	341.36682	68.336823	-1441.4816	271.9389	73.128227	-1408.0283	341.17453	29.644001	-1388.6599	261.42865	26.384363	-1561.3289	200.45009	39.679615	-1529.439	223.73723	35.991238	-1550.2712	286.92245	923.33331	-759.98987	237.87131	915.74622	-763.04492	227.65501	976.76117	-763.69733	287.20538	595.02612	-731.83057	208.61186	603.3252	-1277.5925	209.53629	594.83252	-1215.8431	217.82173	518.93195	-1218.5958	181.5775	1004.1617	-1209.7112	193.52646	944.86957	-1227.5067	228.77605	1015.5283	-1219.4091
1097	5.475	58.065186	1416.668	-991.17664	68.714294	1401.2156	-929.59088	88.472481	1372.0823	-1060.3287	254.99272	556.16003	-2103.3533	262.72775	501.02802	117.43578	506.43839	878.70374	-1033.215	506.97946	876.01971	-959.8266	499.74054	887.84497	-996.12585	201.75877	1220.2924	-974.06232	126.17191	1084.7725	-981.08197	397.78049	1045.8538	-993.07599	116.62321	1102.1971	-1133.1195	144.08586	1099.5626	-811.42078	431.26309	563.10809	-729.49927	420.65607	499.29767	-718.77844	385.32727	527.14075	-695.61786	345.92615	239.00569	-572.4939	382.3273	216.60489	-599.84375	348.30576	174.71461	-563.55072	276.15576	67.711746	-583.8064	332.47662	67.370018	-539.99994	336.091	29.028038	-589.99353	186.94661	45.481159	-461.05746	253.54907	25.128479	-418.21844	208.12807	40.076878	-433.69968	424.33755	569.19965	-1269.694	377.314	533.76666	-1298.7627	416.60434	505.62555	-1280.5122	355.14944	273.85144	-1403.4069	360.33044	209.15074	-1411.0929	393.66165	254.54605	-1377.7058	341.40231	68.330032	-1441.4146	271.93805	73.084976	-1407.9813	341.19519	29.638651	-1388.6727	261.41391	26.370398	-1561.3191	200.45607	39.70089	-1529.4308	223.73526	35.992241	-1550.2644	288.03235	925.74042	-759.8739	239.01625	918.45911	-762.85931	229.01372	979.45197	-763.54553	286.91647	597.44604	-731.57965	208.31525	605.86005	-1277.3647	209.2059	597.31445	-1215.6509	217.43669	521.31891	-1218.4454	182.23897	1006.735	-1209.6327	194.00734	947.38123	-1227.4818	229.28017	1018.2711	-1219.2966
1098	5.48	60.307919	1420.1094	-990.54962	71.052101	1404.2471	-929.15137	90.887512	1375.5366	-1059.8915	255.15794	558.92358	-2103.3101	262.02191	503.16965	117.66248	505.80603	878.48859	-1033.0764	506.39267	875.9436	-959.70245	499.17578	887.79333	-996.00269	204.08217	1222.8677	-974.05225	127.34507	1088.0667	-980.65503	398.53793	1046.4795	-993.14172	117.92564	1105.0542	-1133.0496	146.25467	1102.2054	-811.36993	430.05457	563.47614	-729.25421	419.58722	499.72348	-718.55328	384.1445	527.36749	-695.4281	345.64789	239.13985	-572.43927	382.00635	216.793	-599.87622	348.06094	174.82285	-563.54773	276.07718	67.713669	-583.82672	332.42526	67.393425	-539.995	336.06729	29.031958	-590.01703	186.9193	45.492226	-461.05157	253.50827	25.15049	-418.19589	208.08888	40.114666	-433.67032	423.61206	569.0354	-1268.8353	376.61331	533.58612	-1297.4098	416.29541	505.46133	-1279.6689	355.36438	273.65402	-1402.7781	360.5632	209.0374	-1410.5911	393.85388	254.30748	-1377.037	341.39648	68.335327	-1441.3701	271.99475	73.035835	-1407.936	341.19424	29.616383	-1388.6885	261.39532	26.384012	-1561.3043	200.43417	39.713619	-1529.4315	223.71576	35.998585	-1550.2401	289.12796	928.09827	-759.78186	240.04253	921.0863	-762.69818	230.42757	982.21082	-763.37982	286.6171	599.85046	-731.34613	208.2688	608.51337	-1277.2302	209.00378	599.87512	-1215.4524	217.18936	523.85443	-1218.1735	182.88913	1009.4634	-1209.517	194.49329	949.94781	-1227.4666	230.11075	1020.6451	-1219.293
1099	5.485	62.690659	1423.23	-990.0415	73.397713	1407.4464	-928.58521	93.272949	1378.9376	-1059.5166	255.15935	561.01282	-2102.6772	261.36093	505.36804	117.8911	505.14209	878.16913	-1033.0297	505.79715	875.85272	-959.57617	498.48016	887.75092	-995.92395	206.53226	1225.8328	-974.08325	128.62326	1090.9369	-980.64209	399.30026	1047.163	-993.13147	119.24662	1108.1656	-1132.915	148.03604	1105.8246	-810.71265	429.056	563.92456	-728.99786	418.63541	500.01376	-718.35382	383.1236	527.73016	-695.25153	345.19196	239.34822	-572.38495	381.76257	216.94174	-599.81921	347.94119	174.81793	-563.5202	275.98871	67.694252	-583.82129	332.39609	67.390129	-539.98938	336.03607	29.072617	-590.005	186.91803	45.472488	-461.0835	253.50371	25.154675	-418.19809	208.09821	40.057739	-433.72891	422.53043	569.11615	-1267.4987	376.86258	532.49597	-1297.7659	415.97241	505.48022	-1278.8091	355.55734	273.51877	-1402.1549	360.70605	208.79774	-1410.0527	393.97049	254.08533	-1376.3802	341.38983	68.322266	-1441.2583	271.96317	72.961845	-1407.8463	341.19568	29.570395	-1388.8458	261.37421	26.398323	-1561.2786	200.39609	39.735508	-1529.4142	223.70866	36.001362	-1550.2194	290.21201	930.47473	-759.71008	240.99388	923.72003	-762.63007	231.81366	984.89154	-763.27448	286.24628	602.18982	-731.1424	207.98883	611.0282	-1277.032	208.77876	602.4259	-1215.2781	216.77824	526.30212	-1218.0466	183.73662	1012.1254	-1209.428	194.87376	952.7467	-1227.4373	230.944	1023.0541	-1219.2637
1100	5.49	64.966515	1426.4752	-989.46747	75.731438	1410.4331	-928.12024	95.579193	1382.4601	-1059.0989	254.62469	563.70099	-2102.1919	260.63528	507.50351	118.08921	504.23932	877.66199	-1032.9888	505.103	875.7948	-959.46429	497.80435	887.75214	-995.81708	208.95998	1227.9137	-974.10345	129.9691	1093.8931	-980.70233	400.10403	1047.7186	-993.19263	120.65093	1111.0924	-1132.9808	149.86858	1109.1595	-810.48517	427.85498	564.10522	-728.83197	417.64426	500.20325	-718.17188	382.12436	527.93799	-695.06616	344.75012	239.4617	-572.35138	381.39227	217.13304	-599.75714	347.76392	174.90901	-563.50153	275.93616	67.680511	-583.85303	332.34525	67.389496	-539.9964	336.04385	29.071251	-590.0014	186.88892	45.49408	-461.05212	253.49567	25.149801	-418.2002	208.06128	40.066277	-433.6893	421.80978	569.12769	-1266.4507	376.47131	532.24384	-1296.9327	415.63654	505.17703	-1277.7968	355.67923	273.34332	-1401.4872	360.72549	208.69951	-1409.5084	394.05103	253.9131	-1375.7043	341.39844	68.283005	-1441.1245	272.06171	72.787628	-1407.7109	341.18344	29.600315	-1388.5656	261.35898	26.40209	-1561.2572	200.38536	39.714073	-1529.3813	223.67661	35.973804	-1550.1909	291.20477	932.82886	-759.70544	241.99815	926.31921	-762.52856	233.20145	987.49713	-763.14343	285.92511	604.52191	-730.93921	207.60529	613.21606	-1276.8956	208.52371	604.95959	-1215.0928	216.52747	528.80988	-1217.8604	184.7204	1014.6179	-1209.5032	195.50903	955.23999	-1227.4569	231.95561	1025.312	-1219.2512
1101	5.495	67.215446	1429.9408	-988.79004	77.98864	1413.4858	-927.69586	97.880066	1385.936	-1058.7356	254.37227	566.19849	-2101.7322	259.98584	509.72818	118.36243	503.65634	877.8089	-1032.7734	504.40286	875.72931	-959.33118	497.2131	887.56396	-995.70032	211.53455	1230.3274	-974.19452	131.26703	1097.061	-980.53241	400.88379	1048.2203	-993.23022	122.09702	1114.2009	-1133.05	151.87296	1112.0103	-810.52448	426.77991	564.47961	-728.64478	416.46576	499.67865	-717.77014	381.12662	528.13904	-694.89252	344.37952	239.47327	-572.28815	381.01318	217.36046	-599.71594	347.42459	175.00018	-563.49475	275.8667	67.62178	-583.91095	332.28586	67.392189	-540.00433	336.00293	29.089649	-589.99988	186.85242	45.503609	-461.04013	253.50731	25.174484	-418.19031	208.03372	40.044937	-433.69431	421.37219	568.93823	-1265.7499	375.98456	531.87012	-1296.0122	415.20709	505.17966	-1276.8214	355.685	273.20148	-1400.7601	360.69028	208.76407	-1409.0334	393.88583	253.75554	-1374.98	341.37241	68.262108	-1440.9944	272.03683	72.718857	-1407.6195	341.1658	29.494148	-1388.771	261.33707	26.411673	-1561.2288	200.36497	39.684807	-1529.3634	223.65755	35.965015	-1550.1631	292.2858	935.14282	-759.67902	242.99507	928.86676	-762.44427	234.44801	990.11932	-763.13141	285.60538	606.9549	-730.72845	207.26738	615.79053	-1276.6648	208.18228	607.47858	-1214.8989	216.21327	531.38666	-1217.5189	185.6503	1017.3044	-1209.4579	196.11884	957.81604	-1227.4501	232.98837	1027.7125	-1219.1498
1102	5.5	69.484375	1433.0664	-988.2688	80.42955	1416.4501	-927.11005	100.14382	1389.4685	-1058.2993	254.49806	569.58331	-2102.3032	259.31439	511.9086	118.56306	502.73532	877.28357	-1032.7643	503.66919	875.62836	-959.2262	496.41489	887.53363	-995.63159	214.0257	1232.7867	-974.31342	132.59721	1100.1904	-980.41266	401.67459	1048.8064	-993.28479	123.64851	1117.293	-1133.1984	153.68767	1115.5629	-810.06372	425.79507	564.69092	-728.51855	415.49341	499.86795	-717.63477	380.13239	528.2608	-694.71094	344.03329	239.55635	-572.21906	380.67053	217.54109	-599.69226	347.11377	175.13437	-563.49304	275.77209	67.580925	-583.95166	332.1969	67.424454	-540.00897	335.97501	29.114353	-589.99506	186.82373	45.492409	-461.03156	253.4799	25.190443	-418.16483	208.03319	39.974491	-433.73236	420.66742	568.72961	-1264.6455	375.74622	531.06403	-1295.1671	414.54858	504.38916	-1275.9329	355.68936	273.06927	-1400.1094	360.68622	208.68755	-1408.4999	393.90955	253.54401	-1374.3226	341.33749	68.260994	-1440.8655	271.92917	72.656868	-1407.5208	341.15268	29.547728	-1388.6293	261.30453	26.413582	-1561.2094	200.32301	39.673218	-1529.3452	223.63434	35.946083	-1550.134	293.22748	937.38501	-759.70587	243.93092	931.37152	-762.41675	235.79619	992.737	-763.05359	285.21329	609.36267	-730.51965	206.97995	618.36957	-1276.4576	207.46609	610.40485	-1214.7155	215.81601	533.75372	-1217.4657	186.63588	1020.0173	-1209.4501	196.72021	960.4455	-1227.431	233.99773	1030.1267	-1219.0822
